<svg xmlns="http://www.w3.org/2000/svg" viewBox="0 9 220.39999389648438 37.599998474121094" data-asc="0.92" width="220.39999389648438" height="37.599998474121094"><defs/><g fill="#ffffff"><g transform="translate(0, 0)"><path d="M0 46L0 11L20.75 11L20.75 15.10L4.75 15.10L4.75 25.80L18.10 25.80L18.10 29.70L4.75 29.70L4.75 46L0 46ZM26.25 46L26.25 20L30.60 20L30.60 25.65Q31.25 24 32.35 22.57Q33.45 21.15 35.10 20.27Q36.75 19.40 38.95 19.40Q39.70 19.40 40.45 19.47Q41.20 19.55 41.70 19.70L40.35 24.35Q39.40 23.95 38.10 23.95Q36.25 23.95 34.58 25Q32.90 26.05 31.83 28.25Q30.75 30.45 30.75 33.85L30.75 46L26.25 46ZM55.10 46.60Q49.50 46.60 46.23 43.02Q42.95 39.45 42.95 33Q42.95 29.10 44.43 26.02Q45.90 22.95 48.55 21.17Q51.20 19.40 54.70 19.40Q58.45 19.40 60.93 21.02Q63.40 22.65 64.65 25.40Q65.90 28.15 65.90 31.45Q65.90 33.20 65.75 34.85L47.55 34.85Q48 38.50 50.10 40.55Q52.20 42.60 55.65 42.60Q57.90 42.60 59.70 42.13Q61.50 41.65 63.15 40.90L64.20 44.75Q62.40 45.55 60.15 46.08Q57.90 46.60 55.10 46.60M47.50 31.20L61.75 31.20Q61.75 27.40 59.85 25.35Q57.95 23.30 54.60 23.30Q51.70 23.30 49.80 25.32Q47.90 27.35 47.50 31.20ZM82.30 46.60Q76.70 46.60 73.43 43.02Q70.15 39.45 70.15 33Q70.15 29.10 71.63 26.02Q73.10 22.95 75.75 21.17Q78.40 19.40 81.90 19.40Q85.65 19.40 88.13 21.02Q90.60 22.65 91.85 25.40Q93.10 28.15 93.10 31.45Q93.10 33.20 92.95 34.85L74.75 34.85Q75.20 38.50 77.30 40.55Q79.40 42.60 82.85 42.60Q85.10 42.60 86.90 42.13Q88.70 41.65 90.35 40.90L91.40 44.75Q89.60 45.55 87.35 46.08Q85.10 46.60 82.30 46.60M74.70 31.20L88.95 31.20Q88.95 27.40 87.05 25.35Q85.15 23.30 81.80 23.30Q78.90 23.30 77 25.32Q75.10 27.35 74.70 31.20ZM107.00 46.60Q104.70 46.60 102.85 45.73Q101.00 44.85 99.93 42.90Q98.85 40.95 98.85 37.85L98.85 9L103.35 9L103.35 37.40Q103.35 40.10 104.48 41.40Q105.60 42.70 107.60 42.70Q108.55 42.70 109.48 42.48Q110.40 42.25 111.05 41.95L112.15 45.60Q111.25 46 109.93 46.30Q108.60 46.60 107.00 46.60ZM125.60 46.60Q122.35 46.60 119.70 44.95Q117.05 43.30 115.48 40.27Q113.90 37.25 113.90 33.15Q113.90 29.25 115.48 26.15Q117.05 23.05 119.83 21.22Q122.60 19.40 126.20 19.40Q128.45 19.40 130.28 20.17Q132.10 20.95 133.45 22.10L133.45 20L137.55 20L137.55 39.70Q137.55 41.60 138.48 42.17Q139.40 42.75 140.50 42.75L139.55 46.25Q134.75 46.25 133.75 42.35Q132.60 43.95 130.63 45.27Q128.65 46.60 125.60 46.60M126.60 42.60Q128.50 42.60 130.20 41.67Q131.90 40.75 133.05 39.35L133.05 25.40Q131.70 24.45 130.08 23.88Q128.45 23.30 126.65 23.30Q124.25 23.30 122.43 24.52Q120.60 25.75 119.55 27.93Q118.50 30.10 118.50 33Q118.50 35.80 119.55 37.98Q120.60 40.15 122.45 41.38Q124.30 42.60 126.60 42.60ZM146.50 46L146.50 20L150.85 20L150.85 24.35Q152.25 22.25 154.43 20.82Q156.60 19.40 159.60 19.40Q164 19.40 166.18 22.05Q168.35 24.70 168.35 29.05L168.35 46L163.85 46L163.85 29.55Q163.85 26.75 162.53 25.05Q161.20 23.35 158.85 23.35Q156.55 23.35 154.50 24.97Q152.45 26.60 151 28.80L151 46L146.50 46ZM186.60 46.60Q182.90 46.60 180.13 44.88Q177.35 43.15 175.85 40.08Q174.35 37 174.35 33Q174.35 29.25 175.88 26.15Q177.40 23.05 180.25 21.22Q183.10 19.40 186.95 19.40Q189.15 19.40 190.82 19.80Q192.50 20.20 194.05 20.95L192.70 24.75Q191.30 24.05 190.03 23.72Q188.75 23.40 187.20 23.40Q183.70 23.40 181.32 25.92Q178.95 28.45 178.95 32.90Q178.95 35.60 179.95 37.80Q180.95 40 182.72 41.30Q184.50 42.60 186.90 42.60Q188.80 42.60 190.15 42.17Q191.50 41.75 193.05 40.95L194.45 44.75Q192.90 45.60 190.97 46.10Q189.05 46.60 186.60 46.60ZM209.60 46.60Q204 46.60 200.72 43.02Q197.45 39.45 197.45 33Q197.45 29.10 198.92 26.02Q200.40 22.95 203.05 21.17Q205.70 19.40 209.20 19.40Q212.95 19.40 215.42 21.02Q217.90 22.65 219.15 25.40Q220.40 28.15 220.40 31.45Q220.40 33.20 220.25 34.85L202.05 34.85Q202.50 38.50 204.60 40.55Q206.70 42.60 210.15 42.60Q212.40 42.60 214.20 42.13Q216 41.65 217.65 40.90L218.70 44.75Q216.90 45.55 214.65 46.08Q212.40 46.60 209.60 46.60M202 31.20L216.25 31.20Q216.25 27.40 214.35 25.35Q212.45 23.30 209.10 23.30Q206.20 23.30 204.30 25.32Q202.40 27.35 202 31.20Z"/></g></g></svg>