<svg xmlns="http://www.w3.org/2000/svg" viewBox="0 11.100000381469727 220.39999389648438 40.85000228881836" data-asc="1.03" width="220.39999389648438" height="40.85000228881836"><defs/><g fill="#000000"><g transform="translate(0, 0)"><path d="M23.50 16.15L1.70 16.15L1.70 31.65L21 31.65L21 33.30L1.70 33.30L1.70 51.50L0 51.50L0 14.50L23.50 14.50L23.50 16.15ZM30.45 24.50L31.95 24.50L32.10 28.20L32.30 28.20Q34.00 26.42 36.61 25.36Q39.23 24.30 41.80 24.30Q43.35 24.30 44.65 24.55L44.65 26.25Q43.45 26.05 41.80 26.05Q39.33 26.05 36.63 27.15Q33.93 28.25 32.15 30.40L32.15 51.50L30.45 51.50L30.45 24.50ZM70.40 38.75L50.05 38.75Q50.38 50.30 61.35 50.30Q64.75 50.30 69.10 48.90L69.10 50.60Q64.98 51.95 61.25 51.95Q54.98 51.95 51.61 48.50Q48.25 45.05 48.25 38Q48.25 33.42 49.60 30.31Q50.95 27.20 53.46 25.65Q55.98 24.10 59.45 24.10Q64.73 24.10 67.56 27.63Q70.40 31.15 70.40 38L70.40 38.75M59.45 25.75Q50.35 25.75 50.05 37.10L68.65 37.10Q68.53 31.32 66.20 28.54Q63.88 25.75 59.45 25.75ZM98.40 38.75L78.05 38.75Q78.38 50.30 89.35 50.30Q92.75 50.30 97.10 48.90L97.10 50.60Q92.98 51.95 89.25 51.95Q82.98 51.95 79.61 48.50Q76.25 45.05 76.25 38Q76.25 33.42 77.60 30.31Q78.95 27.20 81.46 25.65Q83.98 24.10 87.45 24.10Q92.73 24.10 95.56 27.63Q98.40 31.15 98.40 38L98.40 38.75M87.45 25.75Q78.35 25.75 78.05 37.10L96.65 37.10Q96.53 31.32 94.20 28.54Q91.88 25.75 87.45 25.75ZM105.95 51.50L105.95 11.10L107.65 11.10L107.65 51.50L105.95 51.50ZM125.65 24.10Q128.98 24.10 131.19 24.94Q133.40 25.77 134.58 27.74Q135.75 29.70 135.75 33.05L135.75 51.50L134.25 51.50L134.10 48.15L133.90 48.15Q132.33 49.83 129.79 50.86Q127.25 51.90 124.50 51.90Q120.43 51.90 118.16 50.02Q115.90 48.15 115.90 44.80Q115.90 42.58 116.90 41.05Q117.90 39.52 120.04 38.58Q122.18 37.63 125.65 37.20L134.05 36.17L134.05 33.10Q134.05 30.22 133.09 28.63Q132.13 27.02 130.33 26.39Q128.53 25.75 125.70 25.75Q121.38 25.75 117.45 27.15L117.45 25.45Q119.18 24.80 121.35 24.45Q123.53 24.10 125.65 24.10M124.50 50.25Q127.20 50.25 129.66 49.19Q132.13 48.13 134.05 46.05L134.05 37.83L125.60 38.85Q121.38 39.38 119.56 40.76Q117.75 42.15 117.75 44.70Q117.75 47.35 119.43 48.80Q121.10 50.25 124.50 50.25ZM145.10 24.50L146.60 24.50L146.75 27.85L146.95 27.85Q149.03 26.02 151.68 25.06Q154.33 24.10 157.15 24.10Q161.78 24.10 164.31 26.47Q166.85 28.85 166.85 34L166.85 51.50L165.15 51.50L165.15 33.95Q165.15 29.63 163.10 27.69Q161.05 25.75 157.15 25.75Q154.40 25.75 151.64 26.80Q148.88 27.85 146.80 30.10L146.80 51.50L145.10 51.50L145.10 24.50ZM186.50 51.95Q180.68 51.95 177.59 48.50Q174.50 45.05 174.50 38Q174.50 24.10 187.60 24.10Q189.20 24.10 190.83 24.32Q192.45 24.55 193.80 25L193.80 26.70Q190.70 25.75 187.60 25.75Q181.90 25.75 179.10 28.65Q176.30 31.55 176.30 37.90Q176.30 44.35 178.90 47.33Q181.50 50.30 186.65 50.30Q189.88 50.30 193.80 48.90L193.80 50.60Q190.20 51.95 186.50 51.95ZM220.40 38.75L200.05 38.75Q200.38 50.30 211.35 50.30Q214.75 50.30 219.10 48.90L219.10 50.60Q214.98 51.95 211.25 51.95Q204.98 51.95 201.61 48.50Q198.25 45.05 198.25 38Q198.25 33.42 199.60 30.31Q200.95 27.20 203.46 25.65Q205.98 24.10 209.45 24.10Q214.73 24.10 217.56 27.63Q220.40 31.15 220.40 38L220.40 38.75M209.45 25.75Q200.35 25.75 200.05 37.10L218.65 37.10Q218.53 31.32 216.20 28.54Q213.88 25.75 209.45 25.75Z"/></g></g></svg>