<?xml version="1.0" encoding="UTF-8"?>
<svg version="1.1" xmlns="http://www.w3.org/2000/svg" width="2434" height="1195">
<path d="M0 0 C4.26324523 2.34913512 7.52401358 5.36795003 11.0625 8.6875 C12.54022186 10.04373798 14.0180149 11.39990012 15.49755859 12.75415039 C16.54589626 13.7143361 17.59308733 14.67577509 18.63916016 15.63842773 C21.41585638 18.19227022 24.21165638 20.71676886 27.0625 23.1875 C30.9933925 26.5942735 34.81446573 30.11752785 38.640625 33.640625 C41.41744057 36.19305143 44.21230717 38.71733288 47.0625 41.1875 C50.9933925 44.5942735 54.81446573 48.11752785 58.640625 51.640625 C61.41744057 54.19305143 64.21230717 56.71733288 67.0625 59.1875 C70.45300844 62.12594065 73.76216982 65.14866302 77.0625 68.1875 C81.02109723 71.8316694 85.01426832 75.42663779 89.078125 78.953125 C93.11624691 82.48250714 97.08164681 86.09384226 101.0625 89.6875 C102.72890851 91.18778679 104.39557353 92.68778872 106.0625 94.1875 C166.0625 148.1875 166.0625 148.1875 168.53515625 150.4140625 C170.29143261 151.99389688 172.04936657 153.57188968 173.80859375 155.1484375 C174.69675781 155.94507813 175.58492187 156.74171875 176.5 157.5625 C177.70462891 158.64144531 177.70462891 158.64144531 178.93359375 159.7421875 C179.63613281 160.38414062 180.33867188 161.02609375 181.0625 161.6875 C181.59438431 162.11146561 182.12626862 162.53543121 182.67427063 162.97224426 C184.61953057 165.37575073 184.42413271 167.00966801 184.40307617 170.0769043 C184.40284958 171.17781906 184.40262299 172.27873383 184.40238953 173.41300964 C184.38690567 174.60058365 184.37142181 175.78815765 184.35546875 177.01171875 C184.35122391 178.22825638 184.34697906 179.44479401 184.34260559 180.69819641 C184.32578851 184.59068771 184.28812959 188.48266471 184.25 192.375 C184.23495713 195.01106024 184.22126804 197.64712858 184.20898438 200.28320312 C184.17587499 206.7514781 184.12564505 213.21945231 184.0625 219.6875 C187.16261586 217.87597874 190.26217718 216.06351722 193.36083984 214.24951172 C196.0053579 212.70143471 198.65176712 211.15665589 201.29931641 209.61376953 C207.31472691 206.10200649 213.30482499 202.57093377 219.1953125 198.8515625 C220.54061035 198.00996582 220.54061035 198.00996582 221.91308594 197.15136719 C223.55410575 196.11850868 225.18566459 195.07040824 226.80566406 194.00488281 C230.42220585 191.7419564 232.45089715 190.70541305 236.796875 190.578125 C240.72166774 191.9114278 242.27998023 193.40389906 244.9375 196.5625 C246.22333984 198.06683594 246.22333984 198.06683594 247.53515625 199.6015625 C248.36917969 200.61992187 249.20320313 201.63828125 250.0625 202.6875 C250.78308594 203.56148437 251.50367188 204.43546875 252.24609375 205.3359375 C253.70099554 207.11385418 255.14995626 208.8966448 256.59375 210.68359375 C259.46287327 214.17466305 262.40897618 217.59125351 265.375 221 C265.92542969 221.63284912 266.47585938 222.26569824 267.04296875 222.91772461 C268.16132175 224.20308109 269.27981163 225.48831848 270.3984375 226.7734375 C293.18842779 252.9872761 293.18842779 252.9872761 293.18554783 259.04096413 C293.18753888 259.96107926 293.18952993 260.88119439 293.19158131 261.8291918 C293.18866847 262.84668552 293.18575563 263.86417924 293.18275452 264.9125061 C293.18403615 266.52603078 293.18403615 266.52603078 293.18534368 268.17215192 C293.18699949 271.80049417 293.18147544 275.42879087 293.17602539 279.05712891 C293.17574351 281.64852396 293.17590126 284.23991908 293.1764679 286.83131409 C293.17699301 292.42271019 293.17384754 298.01409465 293.16823006 303.60548782 C293.16011333 311.68976713 293.15749966 319.7740408 293.15624207 327.85832374 C293.15405182 340.97358621 293.14739247 354.08884247 293.13793945 367.20410156 C293.12876463 379.94661427 293.12168414 392.68912529 293.11743164 405.43164062 C293.11703756 406.60922221 293.11703756 406.60922221 293.11663551 407.81059332 C293.1153305 411.74886278 293.11406678 415.68713225 293.11282361 419.62540174 C293.10245184 452.31277234 293.08483426 485.00013534 293.0625 517.6875 C293.83702011 517.68527939 294.61154022 517.68305878 295.40953064 517.68077087 C302.69371021 517.66076866 309.97787655 517.64552623 317.26207638 517.63568783 C321.00733037 517.63045986 324.75256176 517.62336378 328.49780273 517.61206055 C332.10931687 517.60122859 335.72080921 517.59522251 339.33233833 517.59262276 C340.71310329 517.59076906 342.093867 517.58714951 343.47462273 517.58176994 C345.40225952 517.57455553 347.32991807 517.57409191 349.25756836 517.57397461 C350.35677109 517.571754 351.45597382 517.56953339 352.58848572 517.56724548 C355.0625 517.6875 355.0625 517.6875 356.0625 518.6875 C356.16231214 521.3648138 356.20129875 524.01054175 356.1875 526.6875 C356.19136719 527.43773437 356.19523437 528.18796875 356.19921875 528.9609375 C356.18911053 534.56088947 356.18911053 534.56088947 355.0625 535.6875 C352.05805071 535.78752581 349.07652349 535.82108599 346.07157898 535.81334114 C345.11172848 535.81479458 344.15187798 535.81624802 343.1629411 535.81774551 C339.90377802 535.82143348 336.64466089 535.81790623 333.38549805 535.81448364 C331.04246083 535.81563436 328.69942379 535.81722155 326.35638714 535.81921089 C320.56484847 535.82296947 314.77332351 535.82202941 308.98178464 535.81916012 C302.04915608 535.81598285 295.11653285 535.81857997 288.18390456 535.82137203 C274.59939198 535.82664907 261.0148841 535.8261769 247.43037108 535.82329312 C235.54264068 535.8207818 223.654912 535.82011888 211.7671814 535.82131577 C210.58633474 535.82143034 210.58633474 535.82143034 209.38163259 535.82154724 C206.18634907 535.82185855 202.99106556 535.82217695 199.79578204 535.822507 C169.79536122 535.82556895 139.7949434 535.82278787 109.79452305 535.8174101 C83.11594345 535.81266417 56.43736862 535.81308879 29.75878906 535.81787109 C-0.18526247 535.82322076 -30.12931136 535.82535183 -60.0733633 535.82225883 C-63.26296933 535.82193809 -66.45257537 535.82162525 -69.6421814 535.82131577 C-70.42759695 535.82123669 -71.2130125 535.82115761 -72.02222852 535.82107614 C-83.90517008 535.81993661 -95.78810973 535.82127275 -107.67105103 535.82379532 C-121.17668714 535.82664799 -134.68231781 535.82595387 -148.18795323 535.82051457 C-155.08614472 535.81782835 -161.98432735 535.81674617 -168.88251877 535.82016373 C-175.18631201 535.82312402 -181.49008645 535.82153837 -187.79387796 535.81618617 C-190.0852368 535.81506084 -192.37659719 535.81565571 -194.66795504 535.81806196 C-197.76085291 535.82106303 -200.85368469 535.81802451 -203.94657898 535.81334114 C-204.85493433 535.81568231 -205.76328968 535.81802347 -206.69917095 535.82043558 C-212.82334966 535.80165034 -212.82334966 535.80165034 -213.9375 534.6875 C-213.9375 529.0775 -213.9375 523.4675 -213.9375 517.6875 C-193.1475 517.6875 -172.3575 517.6875 -150.9375 517.6875 C-150.94273682 508.82737061 -150.94797363 499.96724121 -150.95336914 490.83862305 C-150.96940778 462.51284675 -150.98053759 434.18707045 -150.98856533 405.86129079 C-150.98981609 401.46392367 -150.9911104 397.06655656 -150.99243164 392.66918945 C-150.99269395 391.79372626 -150.99295626 390.91826306 -150.99322652 390.01627067 C-150.99758179 375.82750292 -151.00546856 361.6387392 -151.0146528 347.44997384 C-151.0239933 332.89878993 -151.02955646 318.34760814 -151.03158849 303.79642135 C-151.03296289 294.812371 -151.03730902 285.82833206 -151.04541647 276.84428523 C-151.05068881 270.68960731 -151.05230317 264.53493532 -151.05100138 258.3802553 C-151.05035877 254.82553308 -151.05136688 251.27083084 -151.05670547 247.71611214 C-151.06244277 243.86795947 -151.06049667 240.01983313 -151.05775452 236.17167664 C-151.06066736 235.04036731 -151.0635802 233.90905798 -151.06658131 232.74346656 C-151.06459026 231.71685851 -151.06259921 230.69025046 -151.06054783 229.63253307 C-151.06111741 228.29914513 -151.06111741 228.29914513 -151.0616985 226.93882006 C-150.9375 224.6875 -150.9375 224.6875 -149.9375 221.6875 C-149.2775 221.6875 -148.6175 221.6875 -147.9375 221.6875 C-147.6075 220.6975 -147.2775 219.7075 -146.9375 218.6875 C-144.9609375 216.8828125 -144.9609375 216.8828125 -142.3125 214.8125 C-137.65767353 211.0970693 -133.11355742 207.2895612 -128.625 203.375 C-127.34249816 202.25905684 -126.05994575 201.1431718 -124.77734375 200.02734375 C-124.14038574 199.47288574 -123.50342773 198.91842773 -122.84716797 198.34716797 C-115.80477609 192.2267154 -108.74747199 186.12719663 -101.5 180.25 C-96.44816283 176.14770051 -91.5344402 171.90048022 -86.62744141 167.62744141 C-82.0473153 163.64114274 -77.43199221 159.70032426 -72.78833008 155.78833008 C-69.3593108 152.89744348 -65.95133101 149.98362334 -62.55517578 147.05419922 C-60.22559971 145.04850795 -57.88614731 143.05457158 -55.54492188 141.0625 C-54.04705048 139.78121025 -52.56204773 138.48491878 -51.078125 137.1875 C-47.5618228 134.20397086 -44.61733415 131.9570894 -40.3125 130.25 C-35.99582901 130.80956846 -34.45195712 132.3256028 -31.390625 135.30859375 C-28.26272968 138.34185529 -24.95118161 141.12553131 -21.625 143.9375 C-20.41911439 144.96182709 -19.21461369 145.98778753 -18.01171875 147.015625 C-17.49182373 147.4580957 -16.97192871 147.90056641 -16.4362793 148.35644531 C-14.87383648 149.7440391 -13.40928222 151.20474708 -11.9375 152.6875 C-11.93326806 151.94389599 -11.92903612 151.20029198 -11.92467594 150.43415451 C-11.82141455 132.34866424 -11.71278354 114.26321353 -11.59816074 96.1777916 C-11.54286003 87.4318551 -11.4893832 78.68591453 -11.44018555 69.93994141 C-11.39730511 62.31781326 -11.35101736 54.69571477 -11.30062145 47.07363248 C-11.27405163 43.03704086 -11.24919932 39.000455 -11.22842598 34.96382904 C-11.20882377 31.16523048 -11.18466929 27.3666882 -11.15700912 23.56814003 C-11.14765767 22.17335598 -11.13997556 20.77855958 -11.13408089 19.38375664 C-11.1257874 17.48023914 -11.11092197 15.57675365 -11.09571838 13.67327881 C-11.08926583 12.60768612 -11.08281328 11.54209343 -11.0761652 10.44421005 C-10.95174243 7.97064424 -10.83256301 5.99138004 -9.9375 3.6875 C-4.3652315 -0.46438633 -4.3652315 -0.46438633 0 0 Z M7.0625 28.6875 C7.0625 190.0575 7.0625 351.4275 7.0625 517.6875 C19.6025 517.6875 32.1425 517.6875 45.0625 517.6875 C45.05089844 512.20560059 45.03929687 506.72370117 45.02734375 501.07568359 C44.99486755 482.98665111 45.00576134 464.89783829 45.03915405 446.8088131 C45.0583416 435.83872054 45.06259462 424.86900113 45.03173828 413.89892578 C45.00488282 404.33779298 45.00599892 394.77714351 45.04075909 385.21602881 C45.05818817 380.15289635 45.06157263 375.09062978 45.03146362 370.0275383 C45.0035633 365.26155449 45.01307068 360.49710738 45.05123711 355.7312088 C45.05865394 353.98249514 45.05241794 352.23366188 45.03148079 350.48505783 C44.88449765 337.26306893 44.88449765 337.26306893 47.81360531 333.34541035 C49.84969404 331.78447121 51.71804601 330.70909352 54.0625 329.6875 C54.9687915 329.13698975 55.87508301 328.58647949 56.80883789 328.01928711 C58.03461548 327.37358765 58.03461548 327.37358765 59.28515625 326.71484375 C60.22359375 326.2146875 61.16203125 325.71453125 62.12890625 325.19921875 C63.11761719 324.67972656 64.10632812 324.16023438 65.125 323.625 C67.27311107 322.47969262 69.42022259 321.33250883 71.56640625 320.18359375 C72.65066895 319.60335449 73.73493164 319.02311523 74.85205078 318.42529297 C80.67983039 315.27075797 86.4265307 311.97462918 92.18373108 308.69371033 C99.3353491 304.63312121 106.54355231 300.68600237 113.78125 296.78125 C114.87405273 296.19053711 115.96685547 295.59982422 117.09277344 294.99121094 C119.74882396 293.55566503 122.40540362 292.12110888 125.0625 290.6875 C125.34326028 270.40760208 125.5546438 250.12810036 125.68424606 229.84665966 C125.74603236 220.42876777 125.83021056 211.01208577 125.96777344 201.5949707 C126.08766671 193.38352113 126.16486455 185.17294796 126.19156194 176.9606474 C126.20716109 172.61475754 126.24360903 168.27137396 126.33126068 163.92629051 C126.41324065 159.82883935 126.43774128 155.73490454 126.41979218 151.63671112 C126.42307102 150.13984557 126.44664705 148.64285224 126.4929657 147.14669991 C126.67483322 140.96448471 126.77534956 135.23539001 122.44004059 130.39852333 C119.51393476 127.54364979 116.34513595 125.11814105 113.0625 122.6875 C111.71750325 121.53429897 110.3806658 120.37127693 109.0625 119.1875 C108.44375 118.65125 107.825 118.115 107.1875 117.5625 C103.90818857 114.66898991 100.70143288 111.69661641 97.484375 108.734375 C94.70755943 106.18194857 91.91269283 103.65766712 89.0625 101.1875 C85.1316075 97.7807265 81.31053427 94.25747215 77.484375 90.734375 C74.70755943 88.18194857 71.91269283 85.65766712 69.0625 83.1875 C65.1316075 79.7807265 61.31053427 76.25747215 57.484375 72.734375 C54.70755943 70.18194857 51.91269283 67.65766712 49.0625 65.1875 C45.1316075 61.7807265 41.31053427 58.25747215 37.484375 54.734375 C34.10098211 51.6243876 30.67238524 48.57846779 27.1953125 45.57421875 C25.47934209 44.05624492 23.79361804 42.51797435 22.1171875 40.95703125 C21.59253906 40.46976563 21.06789063 39.9825 20.52734375 39.48046875 C19.49791149 38.52185739 18.4716491 37.55982592 17.44921875 36.59375 C14.11006792 33.48735499 10.93979866 31.27236577 7.0625 28.6875 Z M-54.8125 163.125 C-59.38262159 167.33710393 -64.09351973 171.30870825 -68.9296875 175.21484375 C-72.44451252 178.1043038 -75.88160851 181.07431826 -79.3125 184.0625 C-85.61178095 189.54750695 -91.96145881 194.96745176 -98.34912109 200.34912109 C-101.02658943 202.60517419 -103.70127485 204.86451262 -106.375 207.125 C-106.90375732 207.57198242 -107.43251465 208.01896484 -107.97729492 208.47949219 C-112.70148367 212.47803527 -117.4014297 216.50461278 -122.09350586 220.54077148 C-122.63885986 221.00942627 -123.18421387 221.47808105 -123.74609375 221.9609375 C-124.45463501 222.57074463 -124.45463501 222.57074463 -125.17749023 223.19287109 C-126.9375 224.6875 -126.9375 224.6875 -130.00240517 226.55998516 C-132.11009714 228.33872495 -132.85282501 229.32798607 -133.49113441 232.03812659 C-133.69672547 235.11378332 -133.70773303 238.14002877 -133.6590271 241.22236633 C-133.66415365 242.40270154 -133.6692802 243.58303674 -133.6745621 244.79913968 C-133.6827362 248.07202776 -133.66399051 251.34348973 -133.63389373 254.61620915 C-133.60798067 258.14648761 -133.61675131 261.67669969 -133.62130737 265.20704651 C-133.62445339 271.32238327 -133.6056301 277.43733592 -133.57188034 283.55257607 C-133.523116 292.3941159 -133.50749151 301.23547001 -133.49995239 310.07712974 C-133.48682088 324.42204921 -133.44689206 338.76676396 -133.39013672 353.11157227 C-133.33506186 367.04613216 -133.29259169 380.98063644 -133.26708984 394.9152832 C-133.2655135 395.77422431 -133.26393716 396.63316542 -133.26231305 397.51813505 C-133.25448282 401.82719405 -133.24690058 406.13625344 -133.23944163 410.4453131 C-133.17724205 446.19289056 -133.06663211 481.94008936 -132.9375 517.6875 C-104.8875 517.6875 -76.8375 517.6875 -47.9375 517.6875 C-48.2675 399.2175 -48.5975 280.7475 -48.9375 158.6875 C-51.08262223 158.6875 -53.39568537 161.80651953 -54.8125 163.125 Z M220.078125 218.125 C219.4666864 218.48335937 218.8552478 218.84171875 218.22528076 219.2109375 C216.9199198 219.97665874 215.6151911 220.74345866 214.31103516 221.51123047 C212.36384915 222.65727764 210.41454491 223.79964454 208.46484375 224.94140625 C207.18997222 225.68987947 205.9152292 226.43857163 204.640625 227.1875 C204.07651917 227.51806396 203.51241333 227.84862793 202.93121338 228.18920898 C201.74831101 228.88645877 200.58148857 229.61159995 199.43095684 230.3610611 C197.0625 231.6875 197.0625 231.6875 193.86808872 232.74948883 C189.74677719 234.45997378 186.64639687 235.96878702 184.0625 239.6875 C181.45746194 248.05390272 182.42560822 257.46958193 182.58666992 266.11523438 C182.59758357 268.85534343 182.58884919 271.59530796 182.58091736 274.3354187 C182.57411224 280.23033063 182.61476815 286.12336696 182.68800926 292.01780701 C182.79382919 300.53975193 182.82753398 309.06079332 182.84385315 317.58332402 C182.87228008 331.4112063 182.95872255 345.2380896 183.08178711 359.06542969 C183.20118173 372.49441542 183.29316718 385.92312947 183.34838867 399.35253906 C183.35180408 400.18082205 183.35521948 401.00910503 183.35873839 401.86248749 C183.37570432 406.01789252 183.39213242 410.17329947 183.40829313 414.3287077 C183.54298163 448.78238695 183.77546732 483.23476707 184.0625 517.6875 C198.2525 517.6875 212.4425 517.6875 227.0625 517.6875 C227.0625 417.6975 227.0625 317.7075 227.0625 214.6875 C224.76131169 214.6875 221.93781539 217.03375474 220.078125 218.125 Z M119.5234375 312.07421875 C118.56163574 312.59411377 117.59983398 313.11400879 116.60888672 313.6496582 C115.5623291 314.219021 114.51577148 314.78838379 113.4375 315.375 C112.36387207 315.95789795 111.29024414 316.5407959 110.18408203 317.14135742 C99.92282563 322.73097472 89.74343063 328.46074402 79.59179688 334.24658203 C77.24546225 335.58326803 74.89666576 336.9154957 72.546875 338.24609375 C71.26031155 338.97637734 69.97384439 339.70683061 68.6875 340.4375 C67.06714844 341.35789062 67.06714844 341.35789062 65.4140625 342.296875 C63.18158421 343.4855105 63.18158421 343.4855105 62.0625 344.6875 C61.96546868 346.91508257 61.94063327 349.14580926 61.94224548 351.37550354 C61.94139106 352.08281252 61.94053663 352.79012151 61.93965632 353.5188641 C61.93799945 355.90656282 61.94352623 358.29419243 61.94897461 360.68188477 C61.94925646 362.38644407 61.94909878 364.09100351 61.9485321 365.79556274 C61.94824406 370.437928 61.95414194 375.08026765 61.96110606 379.72262692 C61.96733841 384.56865895 61.9679433 389.41469151 61.96913147 394.26072693 C61.97224514 403.44405964 61.980459 412.6273805 61.99048096 421.81070799 C62.001641 432.26276771 62.00715227 442.71482798 62.01217639 453.16689217 C62.02264159 474.67376953 62.0409875 496.18063065 62.0625 517.6875 C82.8525 517.6875 103.6425 517.6875 125.0625 517.6875 C125.0625 449.0475 125.0625 380.4075 125.0625 309.6875 C123.08470561 309.6875 121.20909879 311.16235838 119.5234375 312.07421875 Z " fill="#010002" transform="translate(1099.9375,72.3125)"/>
<path d="M0 0 C4.11276845 2.05638422 6.96711941 4.56464377 10.25 7.6875 C11.41725351 8.78201327 12.58521929 9.87576745 13.75390625 10.96875 C14.31480957 11.4946875 14.87571289 12.020625 15.45361328 12.5625 C17.93125071 14.86567796 20.48254312 17.0790109 23.04296875 19.2890625 C26.18295968 22.03420427 29.24412897 24.866639 32.3125 27.69140625 C34.75881929 29.96905677 34.75881929 29.96905677 36.97862959 31.03343689 C39.49264208 32.46676609 41.15647283 33.75473481 43 36 C44.20380704 40.7486651 44.04664761 45.48473743 43.96203613 50.35055542 C43.96552575 51.83654903 43.9725323 53.32253783 43.98274946 54.80850041 C44.00063525 58.88874082 43.96864736 62.96730078 43.92852497 67.04732704 C43.89398084 71.44807987 43.90566793 75.84873775 43.91174316 80.24958801 C43.91593829 87.87319271 43.89083625 95.49624972 43.84584045 103.11971664 C43.78082698 114.14187522 43.75998928 125.16376893 43.74993652 136.18609847 C43.73242693 154.06887724 43.6791861 171.95136411 43.60351562 189.83398438 C43.53008479 207.20538879 43.47345679 224.57671391 43.43945312 241.94824219 C43.43735134 243.01899726 43.43524955 244.08975233 43.43308407 245.19295453 C43.42264378 250.5646118 43.41253411 255.93626964 43.40258884 261.30792785 C43.31965332 305.8721644 43.17654522 350.43604424 43 395 C28.81 395 14.62 395 0 395 C0 264.65 0 134.3 0 0 Z " fill="#B164F9" transform="translate(1233,204)"/>
<path d="M0 0 C4.59417913 0.0490007 9.18858333 0.0666318 13.78295135 0.08981323 C20.68888125 0.12802396 27.59338347 0.20488099 34.49938965 0.2746582 C34.49938965 12.4846582 34.49938965 24.6946582 34.49938965 37.2746582 C30.30478027 37.30043945 26.1101709 37.3262207 21.78845215 37.3527832 C18.38975912 37.38458091 14.99115396 37.42023775 11.5925293 37.45845032 C8.0347732 37.49741684 4.47725299 37.52998969 0.91931152 37.5456543 C-26.96815699 37.27993314 -26.96815699 37.27993314 -53.06311035 46.0871582 C-53.71674561 46.43407715 -54.37038086 46.78099609 -55.04382324 47.13842773 C-73.04276041 56.93976272 -82.99576039 71.76918552 -88.77404785 91.23950195 C-93.78927654 112.19021536 -90.20410906 133.75513875 -79.50061035 152.2746582 C-77.09408536 155.91004702 -74.50851695 159.12351796 -71.50061035 162.2746582 C-70.6498291 163.2027832 -70.6498291 163.2027832 -69.78186035 164.1496582 C-54.62896495 179.03671333 -31.88506514 182.32664638 -11.6920166 182.59106445 C-10.3568004 182.61166805 -9.02159023 182.63266534 -7.68638611 182.65403748 C-4.19305333 182.70890683 -0.69966518 182.75846914 2.79376221 182.80688477 C6.3669113 182.85735843 9.93998217 182.91286011 13.51306152 182.96801758 C20.50844319 183.07563883 27.50387313 183.17493443 34.49938965 183.2746582 C34.49938965 195.4846582 34.49938965 207.6946582 34.49938965 220.2746582 C18.46032245 220.39498463 18.46032245 220.39498463 11.51306152 220.42114258 C6.81105121 220.43893193 2.10921952 220.45974946 -2.59265137 220.50097656 C-6.3922881 220.53407619 -10.19173275 220.55161513 -13.99150276 220.55928993 C-15.42605671 220.56474435 -16.86060267 220.57538837 -18.29507256 220.59184837 C-47.09440673 220.90853219 -74.32624489 211.91909573 -96.50061035 193.2746582 C-97.91406738 192.10483398 -97.91406738 192.10483398 -99.3560791 190.91137695 C-118.28480684 174.54129103 -129.36220942 151.67269353 -133.50061035 127.2746582 C-133.63209473 126.52442383 -133.7635791 125.77418945 -133.89904785 125.0012207 C-137.68146307 98.3198593 -131.19814227 69.6995095 -115.75061035 47.6496582 C-95.85369802 21.65407543 -68.45441647 5.31828175 -35.93609619 0.63687134 C-24.04176874 -0.61718175 -11.9427588 -0.14127418 0 0 Z " fill="#000000" transform="translate(2318.5006103515625,747.725341796875)"/>
<path d="M0 0 C7.31353421 7.31353421 14.04655427 14.97898852 20.55078125 23.015625 C23.31810877 26.38761579 26.15152968 29.69659994 29 33 C34.10093798 38.9207749 39.09350914 44.91634701 44 51 C44.69003994 51.65073581 45.38007988 52.30147161 46.09103012 52.97192669 C48.9438526 57.49717128 48.54003095 61.60433248 48.48101807 66.85151672 C48.48443577 67.95834799 48.48785347 69.06517925 48.49137473 70.20555085 C48.4979735 73.9215568 48.47594342 77.63684357 48.45410156 81.3527832 C48.45297352 84.01360199 48.45342988 86.67437645 48.45587158 89.33518982 C48.45796853 95.0673857 48.44542349 100.7993994 48.42292023 106.53154945 C48.39040564 114.81923412 48.37999378 123.10683074 48.37496826 131.39457228 C48.36621475 144.84097898 48.33959767 158.28728859 48.30175781 171.73364258 C48.26503917 184.79516108 48.2367267 197.8566532 48.21972656 210.91821289 C48.21867567 211.72338808 48.21762477 212.52856327 48.21654204 213.3581377 C48.21132187 217.3974836 48.20626704 221.43682969 48.20129442 225.4761759 C48.15983063 258.98419059 48.08827949 292.4920766 48 326 C32.16 326 16.32 326 0 326 C0 218.42 0 110.84 0 0 Z " fill="#B366FE" transform="translate(1336,273)"/>
<path d="M0 0 C5.02010748 3.76508061 8.83422295 6.75011853 13.0390625 11.09765625 C15.31310821 13.30375238 17.7180144 15.26521286 20.1875 17.25 C21.07341536 17.97841636 21.95933073 18.70683272 22.87209201 19.4573223 C24.9291944 21.14862752 27.00634388 22.75306654 29.14189458 24.35114032 C33.56792415 27.8169917 37.30158517 30.88157081 39.09831381 36.33140123 C39.5072761 40.17027204 39.54604096 43.9122682 39.4430542 47.76200867 C39.44829642 49.23170875 39.45882062 50.70139773 39.47412419 52.17102748 C39.5008065 56.1837913 39.45319029 60.19267109 39.39278746 64.2049402 C39.34075056 68.54083993 39.35851719 72.87653741 39.36761475 77.21266174 C39.37389378 84.71642771 39.33638734 92.21893736 39.26876068 99.72238731 C39.17105098 110.57075996 39.13996496 121.41852787 39.12490478 132.26729283 C39.09866974 149.87018961 39.01888926 167.47241742 38.90527344 185.07495117 C38.79505052 202.16964379 38.71014643 219.26415442 38.65917969 236.35913086 C38.65445066 237.94089057 38.65445066 237.94089057 38.64962611 239.55460503 C38.63396515 244.84498813 38.61880078 250.13537252 38.60388327 255.42575777 C38.47957152 299.28432541 38.26497987 343.14207555 38 387 C25.46 387 12.92 387 0 387 C0 259.29 0 131.58 0 0 Z " fill="#AF67FC" transform="translate(1060,212)"/>
<path d="M0 0 C13.2 0 26.4 0 40 0 C40 60.06 40 120.12 40 182 C77.62 182 115.24 182 154 182 C154 194.21 154 206.42 154 219 C134.06854763 219.02254571 114.13710553 219.04097841 94.20564365 219.05181217 C84.9517884 219.05697546 75.69794162 219.06401878 66.4440918 219.07543945 C58.38143802 219.08538529 50.31879037 219.09185319 42.25613064 219.09408849 C37.98431479 219.09539577 33.71251649 219.0984827 29.44070625 219.10573006 C25.42464044 219.11248869 21.40859949 219.11461728 17.39252853 219.11310768 C15.91423215 219.11338408 14.43593499 219.11539013 12.95764351 219.11920547 C10.94801043 219.12414021 8.93836419 219.12239814 6.9287262 219.12025452 C5.80137338 219.12117631 4.67402056 219.1220981 3.51250553 219.12304783 C1 219 1 219 0 218 C-0.09790618 215.19314649 -0.12992803 212.41090064 -0.12025452 209.60362244 C-0.12110894 208.7125536 -0.12196337 207.82148476 -0.12284368 206.90341383 C-0.12450122 203.89384123 -0.11897265 200.88432339 -0.11352539 197.87475586 C-0.11324355 195.72685243 -0.11340119 193.5789489 -0.1139679 191.43104553 C-0.114256 185.58004331 -0.1083572 179.7290614 -0.10139394 173.87806392 C-0.09516253 167.77080687 -0.09455677 161.66354941 -0.09336853 155.55628967 C-0.09025458 143.98238035 -0.08204035 132.40848042 -0.07201904 120.83457524 C-0.06085986 107.66188977 -0.05534795 94.48920386 -0.05032361 81.31651485 C-0.03985778 54.21100348 -0.02151152 27.105505 0 0 Z " fill="#000000" transform="translate(791,749)"/>
<path d="M0 0 C12.87 0 25.74 0 39 0 C40.65784589 1.65784589 40.12210963 3.65175861 40.12908131 5.86641508 C40.12471205 6.91843828 40.12471205 6.91843828 40.12025452 7.99171448 C40.12110894 8.73169188 40.12196337 9.47166928 40.12284368 10.23407024 C40.12450069 12.73232413 40.11897353 15.23051198 40.11352539 17.72875977 C40.11324354 19.51213581 40.11340121 21.29551197 40.1139679 23.07888794 C40.11425596 27.93612191 40.10835788 32.79333141 40.10139394 37.65055966 C40.09516179 42.72080948 40.09455671 47.79105981 40.09336853 52.86131287 C40.0902548 62.46963693 40.08204086 72.07794968 40.07201904 81.68626875 C40.06085919 92.62199528 40.05534778 103.55772234 40.05032361 114.49345315 C40.03985828 136.99564172 40.02225804 159.49782022 40 182 C40.58144996 181.99907821 41.16289991 181.99815641 41.76196957 181.99720669 C55.89074246 181.9751506 70.01951278 181.95858803 84.14829922 181.94818783 C90.98078974 181.94302507 97.81326879 181.93598277 104.64575195 181.92456055 C111.23335305 181.91355293 117.82094531 181.90772377 124.40855598 181.90512276 C126.92808279 181.903268 129.44760891 181.89964643 131.96713066 181.89426994 C135.48257765 181.88706324 138.99797461 181.8860089 142.51342773 181.88647461 C143.56646591 181.88287933 144.61950409 181.87928406 145.70445251 181.87557983 C147.13271362 181.87764183 147.13271362 181.87764183 148.58982849 181.87974548 C149.42220756 181.87882369 150.25458662 181.8779019 151.11218929 181.87695217 C153 182 153 182 154 183 C154 194.88 154 206.76 154 219 C103.18 219 52.36 219 0 219 C0 146.73 0 74.46 0 0 Z " fill="#000000" transform="translate(558,749)"/>
<path d="M0 0 C14.19 0 28.38 0 43 0 C47.49949313 10.12385955 47.49949313 10.12385955 49.15966797 14.74291992 C49.72293289 16.30202339 49.72293289 16.30202339 50.2975769 17.8926239 C50.6917984 18.9941127 51.0860199 20.0956015 51.4921875 21.23046875 C51.91436554 22.40120438 52.33654358 23.57194 52.77151489 24.77815247 C53.67379164 27.28105136 54.57493836 29.7843215 55.47412109 32.28833008 C57.6100832 38.2358636 59.75630848 44.17969637 61.90192413 50.12375259 C62.37915094 51.44596217 62.85625748 52.76821516 63.33324432 54.09051132 C67.1763349 64.74415915 71.06517932 75.37992049 75 86 C80.9133746 101.97107117 86.7110802 117.98348788 92.5 134 C98.60505619 150.89009973 104.722455 167.7750126 110.9375 184.625 C111.34742188 185.73681641 111.34742188 185.73681641 111.765625 186.87109375 C112.53955469 188.9690502 113.31449747 191.06662922 114.08984375 193.1640625 C114.32879364 193.81151428 114.56774353 194.45896606 114.81393433 195.1260376 C116.09138917 198.57873879 117.3884123 202.02294086 118.70751953 205.45996094 C118.98713028 206.19258148 119.26674103 206.92520203 119.55482483 207.68002319 C120.09080702 209.0822289 120.63082671 210.48290023 121.17552185 211.88174438 C122.26853071 214.74719817 123 216.9034209 123 220 C108.81 220 94.62 220 80 220 C77.43576711 214.230476 74.95433715 208.50430335 72.671875 202.62890625 C72.36646286 201.84752792 72.06105072 201.0661496 71.74638367 200.26109314 C70.74488896 197.69593809 69.74700125 195.12940466 68.75 192.5625 C68.3993045 191.66031738 68.04860901 190.75813477 67.68728638 189.82861328 C65.842521 185.0811522 64.00107286 180.33241994 62.16259766 175.58251953 C60.79941969 172.06095754 59.43240184 168.54094931 58.06005859 165.02294922 C46.1902348 134.57774148 35.32825199 103.78771518 24.50124168 72.96091652 C20.48880514 61.53724302 16.45033707 50.12283158 12.4057312 38.71051025 C11.34520714 35.71731188 10.28584449 32.72370496 9.22680664 29.72998047 C8.73965431 28.3539415 8.73965431 28.3539415 8.24266052 26.95010376 C7.62902321 25.216427 7.01600584 23.48253065 6.40370178 21.74838257 C4.54514068 16.49564748 2.62986684 11.26811213 0.61791992 6.07177734 C0 4 0 4 0 0 Z " fill="#000000" transform="translate(1550,748)"/>
<path d="M0 0 C5.67830078 -0.02464705 11.35657069 -0.04283462 17.03491211 -0.05493164 C18.96818585 -0.05997256 20.90145576 -0.06680519 22.8347168 -0.07543945 C25.60726872 -0.08751565 28.37977041 -0.09323057 31.15234375 -0.09765625 C32.45702858 -0.10539818 32.45702858 -0.10539818 33.78807068 -0.11329651 C35.85905814 -0.11349185 37.92994324 -0.06208168 40 0 C41.83612188 1.83612188 41.12540438 4.41245859 41.13374341 6.85633135 C41.13151268 7.70485406 41.12928196 8.55337678 41.12698364 9.4276123 C41.12854363 10.32205913 41.13010362 11.21650596 41.13171089 12.13805723 C41.13572491 15.15911181 41.13252969 18.18011685 41.12939453 21.20117188 C41.13074839 23.35730519 41.13252824 25.51343828 41.13470459 27.66957092 C41.13928071 33.5433642 41.13748863 39.41714001 41.1343255 45.29093361 C41.13180282 51.42308221 41.13413918 57.55522927 41.13571167 63.68737793 C41.13753364 73.98738882 41.13512635 84.28739254 41.13037109 94.58740234 C41.12492842 106.5144869 41.12669106 118.44155437 41.1321975 130.36863852 C41.13672786 140.58854872 41.13737955 150.80845377 41.13475883 161.02836466 C41.13319563 167.14122199 41.13300345 173.25407128 41.13629532 179.3669281 C41.13917292 185.11238344 41.13720039 190.85781664 41.13140106 196.60326958 C41.13007287 198.71852519 41.13046858 200.83378266 41.13266373 202.94903755 C41.13537291 205.82351322 41.13199696 208.6979167 41.12698364 211.5723877 C41.12921436 212.42091041 41.13144509 213.26943313 41.13374341 214.14366865 C41.11414982 219.88585018 41.11414982 219.88585018 40 221 C37.12735944 221.10106874 34.27926372 221.13969672 31.40625 221.1328125 C30.54439087 221.13376923 29.68253174 221.13472595 28.79455566 221.13571167 C26.96866788 221.1363935 25.14277769 221.13453904 23.31689453 221.13037109 C20.51198922 221.12502286 17.70724405 221.13031599 14.90234375 221.13671875 C13.13281214 221.13605797 11.36328064 221.13477681 9.59375 221.1328125 C8.74897095 221.13483673 7.90419189 221.13686096 7.03381348 221.13894653 C1.11495031 221.11495031 1.11495031 221.11495031 0 220 C-0.09791944 217.16791027 -0.12992595 214.36020719 -0.12025452 211.5276947 C-0.12110894 210.62845876 -0.12196337 209.72922281 -0.12284368 208.8027373 C-0.12450125 205.7655258 -0.11897262 202.72836858 -0.11352539 199.69116211 C-0.11324355 197.5235545 -0.11340119 195.35594679 -0.1139679 193.18833923 C-0.114256 187.28361979 -0.10835717 181.37892048 -0.10139394 175.47420573 C-0.09516256 169.31089424 -0.09455677 163.14758234 -0.09336853 156.98426819 C-0.09025457 145.304111 -0.08204032 133.62396312 -0.07201904 121.94381005 C-0.06085989 108.65020774 -0.05534796 95.35660569 -0.05032361 82.06299961 C-0.03985776 54.70866123 -0.02225708 27.35433114 0 0 Z " fill="#000000" transform="translate(2015,748)"/>
<path d="M0 0 C0.72293243 -0.00014603 1.44586487 -0.00029205 2.19070435 -0.0004425 C4.54969419 0.00024701 6.9086023 0.00799376 9.26757812 0.01586914 C10.91524207 0.01773674 12.56290658 0.01915903 14.21057129 0.02015686 C18.52430789 0.02395509 22.83801023 0.03376207 27.1517334 0.04486084 C32.33976534 0.05694272 37.52780881 0.06149004 42.71585083 0.06731415 C50.576867 0.07697551 58.43780818 0.09615084 66.29882812 0.11352539 C66.29882812 12.32352539 66.29882812 24.53352539 66.29882812 37.11352539 C61.57570313 37.1509082 56.85257813 37.18829102 51.98632812 37.22680664 C48.96025279 37.25714994 45.9342318 37.28833895 42.90820312 37.32250977 C38.12503108 37.37644425 33.34196651 37.42756399 28.55859375 37.45996094 C24.69394182 37.48633405 20.8296596 37.52696348 16.96524048 37.57671165 C15.50481839 37.59315433 14.04433271 37.60480695 12.58383179 37.6111393 C-7.16915132 37.70528483 -24.27162938 41.57621927 -40.70117188 53.11352539 C-41.32507812 53.52731445 -41.94898438 53.94110352 -42.59179688 54.36743164 C-54.529426 63.26487017 -62.10524934 80.41823054 -64.36523438 94.66040039 C-65.18814182 103.11912345 -65.40222312 111.62338078 -65.70117188 120.11352539 C-71.66430354 120.13817113 -77.62740582 120.15635939 -83.59057617 120.16845703 C-85.62085486 120.17349817 -87.6511299 120.18033096 -89.68139648 120.18896484 C-92.59294534 120.20104006 -95.50444637 120.20675573 -98.41601562 120.21118164 C-99.78632179 120.21892357 -99.78632179 120.21892357 -101.18431091 120.2268219 C-103.35692615 120.22701707 -105.52944483 120.17564344 -107.70117188 120.11352539 C-109.85783946 117.9568578 -108.94185488 113.15472265 -108.95117188 110.17602539 C-108.91305326 79.70835954 -98.34049064 52.8562167 -76.70117188 31.11352539 C-56.1347367 11.67276788 -28.39334661 -0.04861874 0 0 Z " fill="#000000" transform="translate(1122.701171875,748.886474609375)"/>
<path d="M0 0 C1.6347972 0.00561635 3.26959956 0.00987675 4.90440369 0.01286316 C9.14416196 0.02415189 13.38359684 0.05347492 17.62322998 0.0869751 C22.74384124 0.12351558 27.86456249 0.13691345 32.98526764 0.15433502 C40.70784916 0.18312716 48.42972544 0.24072352 56.15234375 0.29296875 C56.15234375 12.50296875 56.15234375 24.71296875 56.15234375 37.29296875 C51.41761719 37.33035156 46.68289062 37.36773438 41.8046875 37.40625 C38.77405472 37.43658766 35.7434766 37.46777305 32.71289062 37.50195312 C27.92084802 37.55592068 23.1289135 37.60704013 18.33666992 37.6394043 C14.46553813 37.66574653 10.59477736 37.70635644 6.72387886 37.75615501 C5.25983928 37.77261789 3.79573584 37.78425835 2.33161736 37.79058266 C-19.50346159 37.89427895 -39.85110111 42.86148737 -56.22265625 58.04296875 C-70.36429364 73.36559942 -74.28454961 92.12323039 -75.39453125 112.2421875 C-75.43884277 113.02057983 -75.4831543 113.79897217 -75.52880859 114.60095215 C-75.63659883 116.49820596 -75.74234206 118.39557589 -75.84765625 120.29296875 C-81.81078791 120.31761449 -87.7738902 120.33580275 -93.73706055 120.34790039 C-95.76733923 120.35294153 -97.79761427 120.35977432 -99.82788086 120.3684082 C-102.73942972 120.38048342 -105.65093075 120.38619909 -108.5625 120.390625 C-109.93280617 120.39836693 -109.93280617 120.39836693 -111.33079529 120.40626526 C-113.50341052 120.40646043 -115.67592921 120.3550868 -117.84765625 120.29296875 C-119.72635683 118.41426817 -119.02199949 115.29801666 -119.03515625 112.79296875 C-118.90765605 84.16745166 -110.3656552 55.17550067 -89.84765625 34.29296875 C-87.28189886 31.82589434 -84.60647477 29.54124191 -81.84765625 27.29296875 C-80.99558594 26.59171875 -80.14351562 25.89046875 -79.265625 25.16796875 C-68.54322498 16.71912824 -56.76181746 10.34701833 -43.84765625 5.91796875 C-43.19780762 5.69149658 -42.54795898 5.46502441 -41.87841797 5.23168945 C-28.15457612 0.84131398 -14.29166612 -0.14757109 0 0 Z " fill="#000000" transform="translate(198.84765625,748.70703125)"/>
<path d="M0 0 C13.86 0 27.72 0 42 0 C42.47813605 21.87472439 40.77574956 38.44320525 31 58 C30.47664062 59.04800781 29.95328125 60.09601562 29.4140625 61.17578125 C24.75717726 69.75126505 18.52794756 76.8223515 12 84 C11.38253906 84.70125 10.76507813 85.4025 10.12890625 86.125 C-6.94412725 104.51789395 -34.64948225 114.60119133 -59 117 C-61.53006773 117.08621028 -64.06197027 117.12781617 -66.59350586 117.12939453 C-67.30507843 117.13114685 -68.016651 117.13289917 -68.74978638 117.13470459 C-71.0714979 117.13906055 -73.39313163 117.13620964 -75.71484375 117.1328125 C-77.33769241 117.13348681 -78.96054097 117.13445791 -80.58338928 117.13571167 C-83.96811901 117.13717969 -87.3528222 117.13506101 -90.73754883 117.13037109 C-95.08449096 117.12464228 -99.43137178 117.12797824 -103.77831173 117.13394356 C-107.12132739 117.13754619 -110.46432835 117.13641252 -113.80734444 117.13381577 C-115.41139292 117.13314732 -117.01544273 117.13397206 -118.61948967 117.13629532 C-120.85044819 117.13882039 -123.08130497 117.13498484 -125.31225586 117.12939453 C-126.58274277 117.12859894 -127.85322968 117.12780334 -129.16221619 117.12698364 C-132 117 -132 117 -133 116 C-133.10091475 113.41810554 -133.13971499 110.863535 -133.1328125 108.28125 C-133.13376923 107.50817505 -133.13472595 106.7351001 -133.13571167 105.93859863 C-133.13639341 104.30102456 -133.13453957 102.66344781 -133.13037109 101.02587891 C-133.12502271 98.51068079 -133.13031626 95.99566127 -133.13671875 93.48046875 C-133.13605797 91.89322877 -133.1347768 90.3059889 -133.1328125 88.71875 C-133.13483673 87.96146606 -133.13686096 87.20418213 -133.13894653 86.4239502 C-133.11495132 81.11495132 -133.11495132 81.11495132 -132 80 C-129.99888915 79.89194161 -127.99398395 79.85370614 -125.98999023 79.84228516 C-124.70031845 79.83202301 -123.41064667 79.82176086 -122.08189392 79.81118774 C-121.38668074 79.80774982 -120.69146755 79.8043119 -119.9751873 79.80076981 C-117.79050055 79.78896473 -115.60601008 79.76949696 -113.42140198 79.74765015 C-107.20686633 79.6861669 -100.99234012 79.63245659 -94.77758789 79.59863281 C-90.97664292 79.57739075 -87.17603876 79.54183792 -83.37529182 79.49787521 C-81.93998363 79.48391786 -80.50461492 79.47503981 -79.06924248 79.47182083 C-57.21894072 79.41774306 -36.81241278 74.81841606 -20.39453125 59.58203125 C-15.0736602 53.97595438 -11.28522779 47.97355101 -8 41 C-7.62101562 40.21109375 -7.24203125 39.4221875 -6.8515625 38.609375 C-1.43504375 26.31021212 -0.83192384 13.31078137 0 0 Z " fill="#000000" transform="translate(213,851)"/>
<path d="M0 0 C1.33278992 0.00303635 1.33278992 0.00303635 2.69250488 0.00613403 C3.5987561 0.00517731 4.50500732 0.00422058 5.4387207 0.00323486 C7.35876535 0.002553 9.27881229 0.00440771 11.19885254 0.00857544 C14.14861192 0.01392361 17.09821902 0.00863066 20.04797363 0.00222778 C21.90865105 0.00288856 23.76932838 0.00416972 25.63000488 0.00613403 C26.51853149 0.0041098 27.40705811 0.00208557 28.32250977 0 C34.546305 0.02399665 34.546305 0.02399665 35.66125488 1.13894653 C37.64863166 32.57859557 27.68199861 58.74740784 7.18273926 82.28323364 C-11.07668919 102.56407595 -38.3521411 114.53525573 -65.33874512 117.13894653 C-67.86881284 117.22515682 -70.40071539 117.26676271 -72.93225098 117.26834106 C-73.64382355 117.27009338 -74.35539612 117.2718457 -75.08853149 117.27365112 C-77.41024302 117.27800708 -79.73187675 117.27515618 -82.05358887 117.27175903 C-83.67643753 117.27243335 -85.29928609 117.27340444 -86.9221344 117.2746582 C-90.30686413 117.27612623 -93.69156732 117.27400755 -97.07629395 117.26931763 C-101.42323608 117.26358881 -105.7701169 117.26692477 -110.11705685 117.27289009 C-113.46007251 117.27649272 -116.80307346 117.27535906 -120.14608955 117.2727623 C-121.75013804 117.27209385 -123.35418785 117.2729186 -124.95823479 117.27524185 C-127.18919331 117.27776692 -129.42005009 117.27393137 -131.65100098 117.26834106 C-132.92148788 117.26754547 -134.19197479 117.26674988 -135.5009613 117.26593018 C-138.33874512 117.13894653 -138.33874512 117.13894653 -139.33874512 116.13894653 C-139.42729672 113.47268623 -139.45399185 110.83247539 -139.43640137 108.16629028 C-139.43498642 107.36864761 -139.43357147 106.57100494 -139.43211365 105.74919128 C-139.42649828 103.19157218 -139.41394324 100.63403936 -139.40124512 98.07644653 C-139.39623209 96.34663009 -139.39166885 94.61681227 -139.38757324 92.88699341 C-139.37652387 88.637611 -139.35924898 84.38829342 -139.33874512 80.13894653 C-138.12416878 80.13347809 -138.12416878 80.13347809 -136.88505554 80.12789917 C-129.16474202 80.08965621 -121.44489194 80.03240433 -113.72487926 79.95504379 C-109.75818175 79.91593143 -105.79169421 79.88356924 -101.8248291 79.86795044 C-60.80145451 79.70060826 -60.80145451 79.70060826 -26.33874512 59.13894653 C-13.16569483 43.80987542 -7.21310231 25.11647481 -7.33874512 5.07644653 C-7.33874512 -1.16483418 -5.67062678 0.02186384 0 0 Z " fill="#000000" transform="translate(1153.3387451171875,850.8610534667969)"/>
<path d="M0 0 C1.96756712 0.00138269 1.96756712 0.00138269 3.97488308 0.00279331 C5.0664732 0.00151167 5.0664732 0.00151167 6.18011564 0.00020415 C8.63691133 -0.00145281 11.09363987 0.00407421 13.55042934 0.00952244 C15.30424911 0.00980429 17.058069 0.00964662 18.81188869 0.00907993 C23.58854689 0.00879188 28.3651802 0.01468988 33.14183259 0.02165389 C38.12800074 0.02788611 43.1141694 0.02849112 48.10034084 0.0296793 C57.54929315 0.032793 66.99823394 0.04100692 76.44718117 0.05102879 C87.20153264 0.06218871 97.95588466 0.06770007 108.71024048 0.07272422 C130.83918825 0.0831895 152.96812023 0.10153547 175.0970602 0.12304783 C175.0970602 12.66304783 175.0970602 25.20304783 175.0970602 38.12304783 C151.90601263 38.14559271 128.71497389 38.16402575 105.52391815 38.17486 C94.75670957 38.1800235 83.98950826 38.18706722 73.22230434 38.19848728 C63.84120776 38.20843247 54.46011643 38.21490086 45.07901472 38.21713632 C40.10855803 38.21844371 35.13811641 38.22153133 30.16766453 38.22877789 C25.49497898 38.2355355 20.8223148 38.23766532 16.14962482 38.23615551 C14.42944504 38.23643196 12.70926459 38.2384386 10.98908901 38.2422533 C8.65099359 38.24718653 6.31298017 38.24604751 3.97488308 38.24330235 C2.66317166 38.24422414 1.35146025 38.24514593 0 38.24609566 C-2.9029398 38.12304783 -2.9029398 38.12304783 -3.9029398 37.12304783 C-4.00389544 34.4684859 -4.04264978 31.84049607 -4.0357523 29.18554783 C-4.03670902 28.39027683 -4.03766575 27.59500584 -4.03865147 26.77563572 C-4.03933323 25.09098322 -4.03747922 23.40632812 -4.03331089 21.72168064 C-4.02796255 19.13405586 -4.03325599 16.54660467 -4.03965855 13.95898533 C-4.03899776 12.32617244 -4.0377166 10.69335967 -4.0357523 9.06054783 C-4.03777653 8.28139011 -4.03980076 7.5022324 -4.04188633 6.69946384 C-4.01319896 0.17010874 -4.01319896 0.17010874 0 0 Z " fill="#000000" transform="translate(1715.9029397964478,748.8769521713257)"/>
<path d="M0 0 C58.74 0 117.48 0 178 0 C178 12.54 178 25.08 178 38 C154.93933624 38.02254491 131.87868135 38.04097793 108.81800938 38.05181217 C98.11133493 38.05697567 87.4046678 38.06401937 76.69799805 38.07543945 C67.36963917 38.08538467 58.04128559 38.09185304 48.71292156 38.09408849 C43.77041051 38.09539588 38.82791461 38.09848348 33.8854084 38.10573006 C29.23898765 38.11248771 24.59258838 38.11461748 19.94616318 38.11310768 C18.23565873 38.11338412 16.52515361 38.11539075 14.8146534 38.11920547 C12.48969501 38.12413875 10.16481908 38.12299966 7.83985901 38.12025452 C6.53552194 38.12117631 5.23118486 38.1220981 3.88732243 38.12304783 C1 38 1 38 0 37 C0 24.79 0 12.58 0 0 Z " fill="#000000" transform="translate(1246,749)"/>
<path d="M0 0 C0.99 0.33 1.98 0.66 3 1 C4.0572103 3.49535104 4.92761241 5.89878241 5.74609375 8.47265625 C7.81344605 14.65752579 10.03933643 20.72137459 12.53515625 26.74609375 C13.12271783 28.19426705 13.70930577 29.64283576 14.29492188 31.09179688 C15.18225165 33.28578212 16.07802316 35.47411883 17.00170898 37.65307617 C22.82714294 51.45288195 22.82714294 51.45288195 21.3359375 56.90625 C20.60011878 58.62316035 19.81389896 60.31869728 19 62 C18.47704165 63.26793967 17.96381123 64.53991402 17.45776367 65.81469727 C15.89985396 69.72198941 14.28290101 73.60187092 12.65032959 77.47848511 C10.74934139 81.99406536 8.86613983 86.51706979 6.98046875 91.0390625 C6.58120178 91.99540085 6.18193481 92.9517392 5.77056885 93.9370575 C1.35631929 104.52043752 -2.98952633 115.13160493 -7.32302856 125.7482605 C-8.17913683 127.84533746 -9.03594845 129.94212744 -9.89352417 132.03860474 C-11.1103259 135.01335805 -12.32500064 137.98897133 -13.5390625 140.96484375 C-14.06018867 142.23810013 -14.06018867 142.23810013 -14.59184265 143.53707886 C-18.1679716 152.31950594 -21.56142411 161.15794771 -25 170 C-38.86 170 -52.72 170 -67 170 C-68.15138307 166.54585078 -67.87610509 166.01018324 -66.56323242 162.76782227 C-66.22011017 161.90724716 -65.87698792 161.04667206 -65.52346802 160.16001892 C-65.13802826 159.22162674 -64.7525885 158.28323456 -64.35546875 157.31640625 C-63.76135696 155.83866478 -63.76135696 155.83866478 -63.15524292 154.33106995 C-61.84179603 151.07110726 -60.51476413 147.81685893 -59.1875 144.5625 C-58.2648021 142.28073591 -57.34285445 139.99866831 -56.42163086 137.71630859 C-53.62815524 130.80525482 -50.81643774 123.90172265 -48 117 C-47.39496643 115.51635956 -47.39496643 115.51635956 -46.77770996 114.00274658 C-43.48867143 105.93865395 -40.19268315 97.87742522 -36.88598633 89.82055664 C-30.83224774 75.06720035 -24.84383691 60.28789356 -18.875 45.5 C-18.43697052 44.41511292 -17.99894104 43.33022583 -17.54763794 42.21246338 C-16.27862877 39.06893739 -15.01025429 35.92515625 -13.7421875 32.78125 C-13.34134445 31.78785614 -12.9405014 30.79446228 -12.5275116 29.77096558 C-10.55315101 24.87299516 -8.58863467 19.97140316 -6.64160156 15.0625 C-6.2706839 14.1288562 -5.89976624 13.1952124 -5.51760864 12.23327637 C-4.81925248 10.47352298 -4.12307502 8.7129029 -3.42941284 6.95129395 C-1.11086841 1.11086841 -1.11086841 1.11086841 0 0 Z " fill="#000000" transform="translate(1530,798)"/>
<path d="M0 0 C21.36567134 -0.02332696 42.73134058 -0.04097817 64.09702206 -0.05181217 C74.01675275 -0.05697556 83.93647555 -0.06401907 93.85620117 -0.07543945 C102.49896979 -0.08538498 111.14173268 -0.09185311 119.78450686 -0.09408849 C124.36372463 -0.09539583 128.94292605 -0.09848308 133.5221386 -0.10573006 C137.82711706 -0.11248821 142.13207233 -0.11461738 146.43705559 -0.11310768 C148.02178066 -0.1133841 149.60650646 -0.11539044 151.19122696 -0.11920547 C153.34540411 -0.12413953 155.4994923 -0.12299937 157.65367126 -0.12025452 C158.86214187 -0.12117631 160.07061247 -0.1220981 161.31570339 -0.12304783 C164 0 164 0 165 1 C165.08855161 3.6662603 165.11524673 6.30647114 165.09765625 8.97265625 C165.09553383 10.16912025 165.09553383 10.16912025 165.09336853 11.38975525 C165.08775316 13.94737435 165.07519812 16.50490718 165.0625 19.0625 C165.05748698 20.79231645 165.05292373 22.52213426 165.04882812 24.25195312 C165.03777875 28.50133553 165.02050386 32.75065312 165 37 C143.63432866 37.02332696 122.26865942 37.04097817 100.90297794 37.05181217 C90.98324725 37.05697556 81.06352445 37.06401907 71.14379883 37.07543945 C62.50103021 37.08538498 53.85826732 37.09185311 45.21549314 37.09408849 C40.63627537 37.09539583 36.05707395 37.09848308 31.4778614 37.10573006 C27.17288294 37.11248821 22.86792767 37.11461738 18.56294441 37.11310768 C16.97821934 37.1133841 15.39349354 37.11539044 13.80877304 37.11920547 C11.65459589 37.12413953 9.5005077 37.12299937 7.34632874 37.12025452 C6.13785813 37.12117631 4.92938753 37.1220981 3.68429661 37.12304783 C1 37 1 37 0 36 C-0.08855161 33.3337397 -0.11524673 30.69352886 -0.09765625 28.02734375 C-0.0962413 27.22970108 -0.09482635 26.43205841 -0.09336853 25.61024475 C-0.08775316 23.05262565 -0.07519812 20.49509282 -0.0625 17.9375 C-0.05748698 16.20768355 -0.05292373 14.47786574 -0.04882812 12.74804688 C-0.03777875 8.49866447 -0.02050386 4.24934688 0 0 Z " fill="#000000" transform="translate(319,749)"/>
<path d="M0 0 C54.12 0 108.24 0 164 0 C164 12.21 164 24.42 164 37 C142.76470955 37.02254535 121.52942874 37.04097819 100.29412937 37.05181217 C90.43493281 37.05697555 80.5757442 37.06401905 70.71655273 37.07543945 C62.12652183 37.08538501 53.53649669 37.09185312 44.94646019 37.09408849 C40.39518805 37.09539582 35.84393236 37.09848305 31.29266548 37.10573006 C27.01395181 37.11248825 22.73526147 37.11461737 18.45654297 37.11310768 C16.88149323 37.1133841 15.30644277 37.11539041 13.73139763 37.11920547 C11.59035748 37.1241396 9.44940685 37.12299935 7.30836487 37.12025452 C6.10726861 37.12117631 4.90617235 37.1220981 3.66867924 37.12304783 C1 37 1 37 0 36 C0 24.12 0 12.24 0 0 Z " fill="#000000" transform="translate(319,931)"/>
<path d="M0 0 C13.53 0 27.06 0 41 0 C41 48.84 41 97.68 41 148 C27.8 148 14.6 148 1 148 C0 147 0 147 -0.12304783 144.58119869 C-0.12212604 143.49809194 -0.12120424 142.41498518 -0.12025452 141.29905701 C-0.12162918 140.0608017 -0.12300385 138.82254639 -0.12442017 137.54676819 C-0.12088056 136.16195655 -0.11724574 134.77714515 -0.11352539 133.39233398 C-0.11324352 131.94392906 -0.11340124 130.49552399 -0.1139679 129.04711914 C-0.11425589 125.10307686 -0.1083588 121.15906473 -0.10139394 117.21502948 C-0.09516078 113.09770531 -0.09455663 108.98038052 -0.09336853 104.86305237 C-0.0902551 97.06094138 -0.08204156 89.25884433 -0.07201904 81.45673949 C-0.06085826 72.57659696 -0.05534754 63.69645378 -0.05032361 54.81630599 C-0.03985895 36.54419448 -0.02151333 18.27210208 0 0 Z " fill="#000000" transform="translate(1781,820)"/>
<path d="M0 0 C13.2 0 26.4 0 40 0 C40 48.84 40 97.68 40 148 C26.8 148 13.6 148 0 148 C-1.7619502 146.2380498 -1.12614518 143.73315898 -1.12698364 141.34375 C-1.12980347 140.115354 -1.13262329 138.88695801 -1.13552856 137.62133789 C-1.13358397 136.24755845 -1.13153578 134.87377915 -1.12939453 133.5 C-1.13074853 132.06306921 -1.13252846 130.62613877 -1.13470459 129.18920898 C-1.13927906 125.27609411 -1.13748931 121.36300549 -1.1343255 117.44989014 C-1.13180197 113.3637281 -1.13413942 109.27756837 -1.13571167 105.19140625 C-1.13753339 98.32812088 -1.13512701 91.46484625 -1.13037109 84.6015625 C-1.12492847 76.65527994 -1.12669112 68.70902303 -1.1321975 60.76274109 C-1.13672857 53.95256836 -1.13737921 47.14240337 -1.13475883 40.33222961 C-1.13319602 36.25940531 -1.13300239 32.18659307 -1.13629532 28.11376953 C-1.13917395 24.28564243 -1.13719849 20.45754855 -1.13140106 16.62942505 C-1.13007342 15.22046972 -1.13046765 13.81151162 -1.13266373 12.40255737 C-1.13537504 10.48712257 -1.13138058 8.57168168 -1.12698364 6.65625 C-1.12660662 5.58181641 -1.12622959 4.50738281 -1.12584114 3.40039062 C-1 1 -1 1 0 0 Z " fill="#000000" transform="translate(1315,820)"/>
<path d="M0 0 C19.2795303 -0.02332767 38.55905774 -0.04097853 57.83859921 -0.05181217 C66.78978382 -0.05697541 75.74095968 -0.06401863 84.69213867 -0.07543945 C92.49110388 -0.08538545 100.29006276 -0.09185322 108.08903414 -0.09408849 C112.22112186 -0.09539575 116.35319144 -0.09848251 120.48527336 -0.10573006 C124.37001526 -0.11248894 128.25473146 -0.11461723 132.13947868 -0.11310768 C133.56939839 -0.11338407 134.99931891 -0.11538998 136.42923355 -0.11920547 C138.37318051 -0.12414059 140.31714109 -0.12239805 142.26109314 -0.12025452 C143.35157424 -0.12117631 144.44205534 -0.1220981 145.56558132 -0.12304783 C148 0 148 0 149 1 C149.10091475 3.58189446 149.13971499 6.136465 149.1328125 8.71875 C149.13376923 9.49182495 149.13472595 10.2648999 149.13571167 11.06140137 C149.13639341 12.69897544 149.13453957 14.33655219 149.13037109 15.97412109 C149.12502271 18.48931921 149.13031626 21.00433873 149.13671875 23.51953125 C149.13605797 25.10677123 149.1347768 26.6940111 149.1328125 28.28125 C149.13483673 29.03853394 149.13686096 29.79581787 149.13894653 30.5760498 C149.11495132 35.88504868 149.11495132 35.88504868 148 37 C146.10402694 37.0987544 144.20432921 37.12632197 142.30578613 37.12698364 C140.45057091 37.13121338 140.45057091 37.13121338 138.55787659 37.13552856 C137.17465196 37.13358397 135.79142747 37.13153578 134.40820312 37.12939453 C132.96142025 37.13074853 131.51463771 37.13252845 130.06785583 37.13470459 C126.12788238 37.13927909 122.18793498 37.1374893 118.24796104 37.1343255 C114.13377179 37.13180199 110.01958484 37.13413942 105.90539551 37.13571167 C98.99503171 37.13753339 92.08467858 37.13512699 85.17431641 37.13037109 C77.17350233 37.12492847 69.17271373 37.12669112 61.17190027 37.1321975 C54.31501881 37.13672856 47.45814504 37.13737921 40.60126257 37.13475883 C36.50049261 37.13319602 32.39973465 37.13300241 28.29896545 37.13629532 C24.44457361 37.13917393 20.59021476 37.13719853 16.73582649 37.13140106 C15.31719582 37.13007341 13.89856238 37.13046767 12.47993279 37.13266373 C10.55136079 37.13537499 8.62278276 37.13138062 6.69421387 37.12698364 C5.61240593 37.12660662 4.53059799 37.12622959 3.416008 37.12584114 C1 37 1 37 0 36 C-0.08855161 33.3337397 -0.11524673 30.69352886 -0.09765625 28.02734375 C-0.0962413 27.22970108 -0.09482635 26.43205841 -0.09336853 25.61024475 C-0.08775316 23.05262565 -0.07519812 20.49509282 -0.0625 17.9375 C-0.05748698 16.20768355 -0.05292373 14.47786574 -0.04882812 12.74804688 C-0.03777875 8.49866447 -0.02050386 4.24934688 0 0 Z " fill="#000000" transform="translate(319,839)"/>
<path d="M0 0 C0.66 0.33 1.32 0.66 2 1 C2 117.82 2 234.64 2 355 C-3.28 355 -8.56 355 -14 355 C-14 354.67 -14 354.34 -14 354 C-9.71 353.67 -5.42 353.34 -1 353 C-0.67 236.51 -0.34 120.02 0 0 Z " fill="#F250F5" transform="translate(1096,244)"/>
</svg>
